<svg width="199" height="31" viewBox="0 0 199 31" fill="none" xmlns="http://www.w3.org/2000/svg">
<path d="M14.88 15.72C16.3733 15.9867 17.64 16.7733 18.68 18.08C19.72 19.3867 20.24 20.8667 20.24 22.52C20.24 23.9333 19.8667 25.2133 19.12 26.36C18.4 27.48 17.3467 28.3733 15.96 29.04C14.5733 29.68 12.96 30 11.12 30H1.19209e-07V2.2H10.6C12.4933 2.2 14.12 2.52 15.48 3.16C16.84 3.8 17.8667 4.66667 18.56 5.76C19.2533 6.82667 19.6 8.02667 19.6 9.36C19.6 10.96 19.1733 12.2933 18.32 13.36C17.4667 14.4267 16.32 15.2133 14.88 15.72ZM4.56 13.88H10.2C11.6933 13.88 12.8533 13.5467 13.68 12.88C14.5333 12.1867 14.96 11.2 14.96 9.92C14.96 8.66667 14.5333 7.69333 13.68 7C12.8533 6.28 11.6933 5.92 10.2 5.92H4.56V13.88ZM10.72 26.28C12.2667 26.28 13.48 25.9067 14.36 25.16C15.24 24.4133 15.68 23.3733 15.68 22.04C15.68 20.68 15.2133 19.6 14.28 18.8C13.3467 18 12.1067 17.6 10.56 17.6H4.56V26.28H10.72ZM44.9953 18.44C44.9953 19.2667 44.942 20.0133 44.8353 20.68H27.9953C28.1286 22.44 28.782 23.8533 29.9553 24.92C31.1286 25.9867 32.5686 26.52 34.2753 26.52C36.7286 26.52 38.462 25.4933 39.4753 23.44H44.3953C43.7286 25.4667 42.5153 27.1333 40.7553 28.44C39.022 29.72 36.862 30.36 34.2753 30.36C32.1686 30.36 30.2753 29.8933 28.5953 28.96C26.942 28 25.6353 26.6667 24.6753 24.96C23.742 23.2267 23.2753 21.2267 23.2753 18.96C23.2753 16.6933 23.7286 14.7067 24.6353 13C25.5686 11.2667 26.862 9.93333 28.5153 9C30.1953 8.06667 32.1153 7.6 34.2753 7.6C36.3553 7.6 38.2086 8.05333 39.8353 8.96C41.462 9.86667 42.7286 11.1467 43.6353 12.8C44.542 14.4267 44.9953 16.3067 44.9953 18.44ZM40.2353 17C40.2086 15.32 39.6086 13.9733 38.4353 12.96C37.262 11.9467 35.8086 11.44 34.0753 11.44C32.502 11.44 31.1553 11.9467 30.0353 12.96C28.9153 13.9467 28.2486 15.2933 28.0353 17H40.2353ZM57.0828 30.36C55.3495 30.36 53.7895 30.0533 52.4028 29.44C51.0428 28.8 49.9628 27.9467 49.1628 26.88C48.3628 25.7867 47.9361 24.5733 47.8828 23.24H52.6028C52.6828 24.1733 53.1228 24.96 53.9228 25.6C54.7495 26.2133 55.7761 26.52 57.0028 26.52C58.2828 26.52 59.2695 26.28 59.9628 25.8C60.6828 25.2933 61.0428 24.6533 61.0428 23.88C61.0428 23.0533 60.6428 22.44 59.8428 22.04C59.0695 21.64 57.8295 21.2 56.1228 20.72C54.4695 20.2667 53.1228 19.8267 52.0828 19.4C51.0428 18.9733 50.1361 18.32 49.3628 17.44C48.6161 16.56 48.2428 15.4 48.2428 13.96C48.2428 12.7867 48.5895 11.72 49.2828 10.76C49.9761 9.77333 50.9628 9 52.2428 8.44C53.5495 7.88 55.0428 7.6 56.7228 7.6C59.2295 7.6 61.2428 8.24 62.7628 9.52C64.3095 10.7733 65.1361 12.4933 65.2428 14.68H60.6828C60.6028 13.6933 60.2028 12.9067 59.4828 12.32C58.7628 11.7333 57.7895 11.44 56.5628 11.44C55.3628 11.44 54.4428 11.6667 53.8028 12.12C53.1628 12.5733 52.8428 13.1733 52.8428 13.92C52.8428 14.5067 53.0561 15 53.4828 15.4C53.9095 15.8 54.4295 16.12 55.0428 16.36C55.6561 16.5733 56.5628 16.8533 57.7628 17.2C59.3628 17.6267 60.6695 18.0667 61.6828 18.52C62.7228 18.9467 63.6161 19.5867 64.3628 20.44C65.1095 21.2933 65.4961 22.4267 65.5228 23.84C65.5228 25.0933 65.1761 26.2133 64.4828 27.2C63.7895 28.1867 62.8028 28.96 61.5228 29.52C60.2695 30.08 58.7895 30.36 57.0828 30.36ZM75.37 11.68V23.88C75.37 24.7067 75.5567 25.3067 75.93 25.68C76.33 26.0267 76.9967 26.2 77.93 26.2H80.73V30H77.13C75.0767 30 73.5033 29.52 72.41 28.56C71.3167 27.6 70.77 26.04 70.77 23.88V11.68H68.17V7.96H70.77V2.48H75.37V7.96H80.73V11.68H75.37ZM103.683 30.28C101.817 30.28 100.137 29.96 98.6434 29.32C97.1501 28.6533 95.9768 27.72 95.1234 26.52C94.2701 25.32 93.8434 23.92 93.8434 22.32H98.7234C98.8301 23.52 99.2968 24.5067 100.123 25.28C100.977 26.0533 102.163 26.44 103.683 26.44C105.257 26.44 106.483 26.0667 107.363 25.32C108.243 24.5467 108.683 23.56 108.683 22.36C108.683 21.4267 108.403 20.6667 107.843 20.08C107.31 19.4933 106.63 19.04 105.803 18.72C105.003 18.4 103.883 18.0533 102.443 17.68C100.63 17.2 99.1501 16.72 98.0034 16.24C96.8834 15.7333 95.9234 14.96 95.1234 13.92C94.3234 12.88 93.9234 11.4933 93.9234 9.76C93.9234 8.16 94.3234 6.76 95.1234 5.56C95.9234 4.36 97.0434 3.44 98.4834 2.8C99.9234 2.16 101.59 1.84 103.483 1.84C106.177 1.84 108.377 2.52 110.083 3.88C111.817 5.21333 112.777 7.05333 112.963 9.4H107.923C107.843 8.38667 107.363 7.52 106.483 6.8C105.603 6.08 104.443 5.72 103.003 5.72C101.697 5.72 100.63 6.05333 99.8034 6.72C98.9768 7.38667 98.5634 8.34666 98.5634 9.6C98.5634 10.4533 98.8168 11.16 99.3234 11.72C99.8568 12.2533 100.523 12.68 101.323 13C102.123 13.32 103.217 13.6667 104.603 14.04C106.443 14.5467 107.937 15.0533 109.083 15.56C110.257 16.0667 111.243 16.8533 112.043 17.92C112.87 18.96 113.283 20.36 113.283 22.12C113.283 23.5333 112.897 24.8667 112.123 26.12C111.377 27.3733 110.27 28.3867 108.803 29.16C107.363 29.9067 105.657 30.28 103.683 30.28ZM138.464 18.44C138.464 19.2667 138.411 20.0133 138.304 20.68H121.464C121.597 22.44 122.251 23.8533 123.424 24.92C124.597 25.9867 126.037 26.52 127.744 26.52C130.197 26.52 131.931 25.4933 132.944 23.44H137.864C137.197 25.4667 135.984 27.1333 134.224 28.44C132.491 29.72 130.331 30.36 127.744 30.36C125.637 30.36 123.744 29.8933 122.064 28.96C120.411 28 119.104 26.6667 118.144 24.96C117.211 23.2267 116.744 21.2267 116.744 18.96C116.744 16.6933 117.197 14.7067 118.104 13C119.037 11.2667 120.331 9.93333 121.984 9C123.664 8.06667 125.584 7.6 127.744 7.6C129.824 7.6 131.677 8.05333 133.304 8.96C134.931 9.86667 136.197 11.1467 137.104 12.8C138.011 14.4267 138.464 16.3067 138.464 18.44ZM133.704 17C133.677 15.32 133.077 13.9733 131.904 12.96C130.731 11.9467 129.277 11.44 127.544 11.44C125.971 11.44 124.624 11.9467 123.504 12.96C122.384 13.9467 121.717 15.2933 121.504 17H133.704ZM147.112 0.4V30H142.552V0.4H147.112ZM157.258 0.4V30H152.698V0.4H157.258ZM183.045 18.44C183.045 19.2667 182.992 20.0133 182.885 20.68H166.045C166.179 22.44 166.832 23.8533 168.005 24.92C169.179 25.9867 170.619 26.52 172.325 26.52C174.779 26.52 176.512 25.4933 177.525 23.44H182.445C181.779 25.4667 180.565 27.1333 178.805 28.44C177.072 29.72 174.912 30.36 172.325 30.36C170.219 30.36 168.325 29.8933 166.645 28.96C164.992 28 163.685 26.6667 162.725 24.96C161.792 23.2267 161.325 21.2267 161.325 18.96C161.325 16.6933 161.779 14.7067 162.685 13C163.619 11.2667 164.912 9.93333 166.565 9C168.245 8.06667 170.165 7.6 172.325 7.6C174.405 7.6 176.259 8.05333 177.885 8.96C179.512 9.86667 180.779 11.1467 181.685 12.8C182.592 14.4267 183.045 16.3067 183.045 18.44ZM178.285 17C178.259 15.32 177.659 13.9733 176.485 12.96C175.312 11.9467 173.859 11.44 172.125 11.44C170.552 11.44 169.205 11.9467 168.085 12.96C166.965 13.9467 166.299 15.2933 166.085 17H178.285ZM191.693 11.16C192.359 10.04 193.239 9.17333 194.333 8.56C195.453 7.92 196.773 7.6 198.293 7.6V12.32H197.133C195.346 12.32 193.986 12.7733 193.053 13.68C192.146 14.5867 191.693 16.16 191.693 18.4V30H187.133V7.96H191.693V11.16Z" fill="black"/>
</svg>
